<svg xmlns="http://www.w3.org/2000/svg" version="1.1" xmlns:xlink="http://www.w3.org/1999/xlink" xmlns:svgjs="http://svgjs.dev/svgjs" width="1000" height="1000"><style>
    #light-icon {
      display: inline;
    }
    #dark-icon {
      display: none;
    }

    @media (prefers-color-scheme: dark) {
      #light-icon {
        display: none;
      }
      #dark-icon {
        display: inline;
      }
    }
  </style><g id="light-icon"><svg xmlns="http://www.w3.org/2000/svg" version="1.1" xmlns:xlink="http://www.w3.org/1999/xlink" xmlns:svgjs="http://svgjs.dev/svgjs" width="1000" height="1000"><g clip-path="url(#SvgjsClipPath3199)"><rect width="1000" height="1000" fill="#424b54"></rect><g transform="matrix(9.809264305177111,0,0,9.809264305177111,110.57220708446869,50.00000000000006)"><svg xmlns="http://www.w3.org/2000/svg" version="1.1" xmlns:xlink="http://www.w3.org/1999/xlink" xmlns:svgjs="http://svgjs.dev/svgjs" width="79.4" height="91.75"><svg xmlns="http://www.w3.org/2000/svg" viewBox="13.3 -0.0537387 79.4 91.75">
	<path d="M 90 40 C 90 45 90 46 87 49 C 88 45 89 47 88 44 C 87 48 87 47 82 50 C 79 51 76 51 72 51 C 70 51 72 53 73 52 C 79 51 78 53 86 49 C 88 51 90 54 86 57 C 85 58 81 59 79 56 C 78 55 75 53 70 53 C 64 49 62 44 62 40 C 62 44 64 49 70 53 C 76 55 76 54 78 57 C 80 63 79 71 74 77 C 72 72 71 70 68 69 C 71 72 72 76 71 83 C 70 76 68 73 64 70 C 67 75 69 78 69 83 C 64.3333 71 59 69 56 67 C 51 63 46 56 45 50 C 44 47 46 45 44 39 C 42 38 42 38 42 35 C 40 39 43 40 39 48 C 41 52 43 54 43 59 C 45 65 44 64 47 67 C 45 63 47 63 46 59 C 52 71 54 70 53 76 C 56 73 55 70 55 68 C 64 74 69 79 69 91 C 67 86 63 85 60 86 C 63 83 64 80 63 77 C 62 81 63 83 58 87 C 57 84 55 84 52 85 C 56 82 59 81 57 75 C 57 80 55 83 49 85 C 46 84 46 81 38 85 C 45 80 47 79 50 74 C 46 79 43 81 36 84 C 34 80 33 81 30 79 C 41 76 44 74 42 68 C 43 72 37 79 28 77 C 28 74 26 71 22 71 C 30 72 34 66 34 60 C 30 65 34 70 18 68 C 18 63 20 60 16 56 C 23 59 26 53 31 53 C 25 52 21 59 16 53 C 17 49 15 50 15 47 C 26 49 29 46 30 43 C 23 49 20 46 14 45 C 17 33 24 32 29 35 C 25 31 17 33 14 40 C 17 25 22 25 27 26 C 26 24 20 23 16 28 C 21 17 27 17 29 19 C 28 16 24 18 22 17 C 25 15 27 14 30 16 C 29 14 27 13 24 14 C 27 11 31 12 33 13 C 33 11 32 11 31 10 C 33 10 36 11 37 13 C 38 10 34 6 35 5 C 38 7 39 9 39 11 C 40 9 39 6 38 4 C 40 4 41 5 42 7 C 41.6667 5.3333 42 4 41 2 C 45 3 48 6 49 8 C 49 5 47 4 46 1 C 49 -1 54 6 54 9 C 55 5 55 5 53 1 C 57 2 60 0 60 9 C 62 6 60 5 60 2 C 65 4 66 7 66 9 C 67 10 67 11 69 9 C 71 13 71 13 69 15 C 72 16 78 20 78 24 C 80 25.6667 80 27 84 29 C 89 31 90 32 92 35 C 91 38 88 37 84 36 C 84 39 85 40 88 40 C 89 42 89 43 89 44 C 89 39 90 38 92 35 Z Z Z M 72 28 C 73 28 73 28.3333 74 30 C 74 29 74 28 73 27 C 72 26 72 26 71 26 C 70 26 69 26 69 27 C 69 28 70 28 71 28 M 51 21 C 49 9 30 18 45 26 C 32 19 47 10 51 21 Z" stroke="#900" stroke-width="0.5" fill="#f61"></path>
</svg></svg></g></g><defs><clipPath id="SvgjsClipPath3199"><rect width="1000" height="1000" x="0" y="0" rx="500" ry="500"></rect></clipPath></defs></svg></g><g id="dark-icon"><svg xmlns="http://www.w3.org/2000/svg" version="1.1" xmlns:xlink="http://www.w3.org/1999/xlink" xmlns:svgjs="http://svgjs.dev/svgjs" width="1000" height="1000"><g clip-path="url(#SvgjsClipPath3200)"><rect width="1000" height="1000" fill="#424b54"></rect><g transform="matrix(9.809264305177111,0,0,9.809264305177111,110.57220708446869,50.00000000000006)"><svg xmlns="http://www.w3.org/2000/svg" version="1.1" xmlns:xlink="http://www.w3.org/1999/xlink" xmlns:svgjs="http://svgjs.dev/svgjs" width="79.4" height="91.75"><svg xmlns="http://www.w3.org/2000/svg" viewBox="13.3 -0.0537387 79.4 91.75">
	<path d="M 90 40 C 90 45 90 46 87 49 C 88 45 89 47 88 44 C 87 48 87 47 82 50 C 79 51 76 51 72 51 C 70 51 72 53 73 52 C 79 51 78 53 86 49 C 88 51 90 54 86 57 C 85 58 81 59 79 56 C 78 55 75 53 70 53 C 64 49 62 44 62 40 C 62 44 64 49 70 53 C 76 55 76 54 78 57 C 80 63 79 71 74 77 C 72 72 71 70 68 69 C 71 72 72 76 71 83 C 70 76 68 73 64 70 C 67 75 69 78 69 83 C 64.3333 71 59 69 56 67 C 51 63 46 56 45 50 C 44 47 46 45 44 39 C 42 38 42 38 42 35 C 40 39 43 40 39 48 C 41 52 43 54 43 59 C 45 65 44 64 47 67 C 45 63 47 63 46 59 C 52 71 54 70 53 76 C 56 73 55 70 55 68 C 64 74 69 79 69 91 C 67 86 63 85 60 86 C 63 83 64 80 63 77 C 62 81 63 83 58 87 C 57 84 55 84 52 85 C 56 82 59 81 57 75 C 57 80 55 83 49 85 C 46 84 46 81 38 85 C 45 80 47 79 50 74 C 46 79 43 81 36 84 C 34 80 33 81 30 79 C 41 76 44 74 42 68 C 43 72 37 79 28 77 C 28 74 26 71 22 71 C 30 72 34 66 34 60 C 30 65 34 70 18 68 C 18 63 20 60 16 56 C 23 59 26 53 31 53 C 25 52 21 59 16 53 C 17 49 15 50 15 47 C 26 49 29 46 30 43 C 23 49 20 46 14 45 C 17 33 24 32 29 35 C 25 31 17 33 14 40 C 17 25 22 25 27 26 C 26 24 20 23 16 28 C 21 17 27 17 29 19 C 28 16 24 18 22 17 C 25 15 27 14 30 16 C 29 14 27 13 24 14 C 27 11 31 12 33 13 C 33 11 32 11 31 10 C 33 10 36 11 37 13 C 38 10 34 6 35 5 C 38 7 39 9 39 11 C 40 9 39 6 38 4 C 40 4 41 5 42 7 C 41.6667 5.3333 42 4 41 2 C 45 3 48 6 49 8 C 49 5 47 4 46 1 C 49 -1 54 6 54 9 C 55 5 55 5 53 1 C 57 2 60 0 60 9 C 62 6 60 5 60 2 C 65 4 66 7 66 9 C 67 10 67 11 69 9 C 71 13 71 13 69 15 C 72 16 78 20 78 24 C 80 25.6667 80 27 84 29 C 89 31 90 32 92 35 C 91 38 88 37 84 36 C 84 39 85 40 88 40 C 89 42 89 43 89 44 C 89 39 90 38 92 35 Z Z Z M 72 28 C 73 28 73 28.3333 74 30 C 74 29 74 28 73 27 C 72 26 72 26 71 26 C 70 26 69 26 69 27 C 69 28 70 28 71 28 M 51 21 C 49 9 30 18 45 26 C 32 19 47 10 51 21 Z" stroke="#900" stroke-width="0.5" fill="#f61"></path>
</svg></svg></g></g><defs><clipPath id="SvgjsClipPath3200"><rect width="1000" height="1000" x="0" y="0" rx="500" ry="500"></rect></clipPath></defs></svg></g></svg>